Coordinates
version=1
nRows=49
nColumns=12
inDegrees=yes

Units are S.I. units (second, meters, Newtons, ...)
Angles are in degrees

endheader
time	SC_y	SC_z	SC_x	AC_y	AC_z	AC_x	GH_y	GH_z	GH_yy	EL_x	PS_y
       0.0              -36.92          6.906           56.0          67.36         -19.45          19.24          85.02          38.16          113.5          31.67          55.96
   0.04987              -36.92          6.905           56.0          67.36         -19.45          19.24          85.03          38.16          113.5          31.68          55.95
   0.09975              -36.92          6.904           56.0          67.35         -19.44          19.23          85.04          38.15          113.4          31.69          55.94
    0.1496              -36.92          6.902          55.99          67.35         -19.44          19.23          85.06          38.14          113.4           31.7          55.94
    0.1995              -36.93          6.901          55.99          67.35         -19.43          19.22          85.07          38.13          113.4          31.71          55.93
    0.2494              -36.93            6.9          55.99          67.34         -19.43          19.22          85.09          38.12          113.3          31.73          55.92
    0.2992              -36.93          6.899          55.99          67.34         -19.43          19.21           85.1          38.11          113.3          31.74          55.91
    0.3491              -36.94          6.897          55.99          67.34         -19.42           19.2          85.12           38.1          113.2          31.75           55.9
     0.399              -36.94          6.896          55.99          67.33         -19.41           19.2          85.14          38.09          113.2          31.76          55.89
    0.4489              -36.94          6.894          55.99          67.33         -19.41          19.19          85.16          38.07          113.1          31.78          55.87
    0.4987              -36.95          6.892          55.99          67.32          -19.4          19.18          85.19          38.06          113.1           31.8          55.86
    0.5486              -36.95           6.89          55.99          67.32          -19.4          19.17          85.21          38.04          113.0          31.81          55.85
    0.5985              -36.96          6.888          55.99          67.31         -19.39          19.16          85.24          38.03          113.0          31.83          55.83
    0.6483              -36.96          6.886          55.99          67.31         -19.38          19.15          85.27          38.01          112.9          31.85          55.82
    0.6982              -36.97          6.884          55.99           67.3         -19.37          19.14           85.3          37.99          112.8          31.87           55.8
    0.7481              -36.97          6.881          55.99           67.3         -19.36          19.12          85.33          37.97          112.7           31.9          55.78
     0.798              -36.98          6.878          55.98          67.29         -19.35          19.11          85.37          37.95          112.6          31.92          55.76
    0.8478              -36.99          6.875          55.98          67.28         -19.34          19.09          85.41          37.92          112.5          31.95          55.74
    0.8977              -36.99          6.872          55.98          67.27         -19.33          19.08          85.45           37.9          112.4          31.98          55.71
    0.9476               -37.0          6.868          55.98          67.26         -19.32          19.06           85.5          37.87          112.3          32.02          55.69
    0.9975              -37.01          6.864          55.98          67.25          -19.3          19.04          85.55          37.84          112.2          32.05          55.66
     1.047              -37.02          6.859          55.98          67.24         -19.29          19.02          85.61           37.8          112.0          32.09          55.62
     1.097              -37.03          6.854          55.97          67.23         -19.27          18.99          85.67          37.76          111.9          32.14          55.59
     1.147              -37.05          6.849          55.97          67.22         -19.25          18.97          85.74          37.72          111.7          32.19          55.55
     1.197              -37.06          6.843          55.97           67.2         -19.23          18.94          85.82          37.67          111.5          32.24           55.5
     1.247              -37.08          6.836          55.97          67.19         -19.21           18.9           85.9          37.62          111.3          32.31          55.45
     1.297              -37.09          6.828          55.96          67.17         -19.18          18.87           86.0          37.56          111.1          32.37           55.4
     1.347              -37.11           6.82          55.96          67.15         -19.15          18.82          86.11          37.49          110.8          32.45          55.34
     1.396              -37.14           6.81          55.96          67.12         -19.12          18.78          86.23          37.41          110.5          32.54          55.27
     1.446              -37.16          6.799          55.95          67.09         -19.08          18.72          86.37          37.33          110.1          32.64          55.19
     1.496              -37.19          6.787          55.95          67.06         -19.03          18.66          86.53          37.23          109.7          32.75           55.1
     1.546              -37.22          6.772          55.94          67.03         -18.98          18.59          86.72          37.11          109.3          32.88          54.99
     1.596              -37.26          6.756          55.93          66.99         -18.92          18.51          86.93          36.98          108.8          33.03          54.87
     1.646              -37.31          6.736          55.93          66.94         -18.86          18.41          87.18          36.83          108.1          33.21          54.73
     1.696              -37.36          6.714          55.92          66.88         -18.78           18.3          87.46          36.65          107.4          33.41          54.57
     1.746              -37.42          6.687           55.9          66.82         -18.68          18.17           87.8          36.44          106.6          33.66          54.38
     1.795              -37.49          6.655          55.89          66.74         -18.57          18.02          88.21          36.19          105.6          33.94          54.15
     1.845              -37.58          6.617          55.88          66.64         -18.44          17.83          88.69          35.89          104.4          34.29          53.87
     1.895              -37.69          6.571          55.86          66.53         -18.28           17.6          89.28          35.53          102.9           34.7          53.54
     1.945              -37.82          6.515          55.83          66.39         -18.08          17.33           90.0          35.09          101.2          35.21          53.13
     1.995              -37.98          6.446           55.8          66.22         -17.84          16.99          90.88          34.54          98.96          35.84          52.63
     2.045              -38.18           6.36          55.77          66.01         -17.54          16.57          91.98          33.86          96.23          36.62          52.01
     2.095              -38.43          6.251          55.72          65.74         -17.16          16.03          93.37           33.0          92.78          37.61          51.22
     2.145              -38.75          6.113          55.67           65.4         -16.68          15.35          95.13          31.92          88.41          38.86          50.22
     2.194              -39.16          5.935          55.59          64.96         -16.06          14.48          97.39          30.52           82.8          40.46          48.94
     2.244              -39.68          5.708           55.5           64.4         -15.26          13.37          100.3          28.73          75.61          42.52          47.29
     2.294              -40.35          5.418          55.38          63.68         -14.25          11.94          104.0          26.44          66.43          45.15          45.19
     2.344              -41.19          5.053          55.22          62.77         -12.97          10.15          108.7          23.57          54.88          48.46          42.55
     2.394              -42.22          4.609          55.04          61.67         -11.42          7.971          114.3          20.06          40.81          52.49          39.33
